<svg width="40" height="40" viewBox="0 0 40 40" fill="none" xmlns="http://www.w3.org/2000/svg">
<path d="M20 7.45221V36.3755M12.35 13.2369H8.3M13.7 19.0215H8.3M38 29.1447V5.87107C38 3.55721 36.236 1.8411 34.094 2.03392H33.986C30.206 2.381 24.464 4.44419 21.26 6.6038L20.954 6.8159C20.432 7.16298 19.568 7.16298 19.046 6.8159L18.596 6.52667C15.392 4.38635 9.668 2.34243 5.888 2.01464C3.746 1.82182 2 3.55721 2 5.85179V29.1447C2 30.9958 3.404 32.7311 5.132 32.9625L5.654 33.0397C9.56 33.5988 15.59 35.7199 19.046 37.7445L19.118 37.7831C19.604 38.0723 20.378 38.0723 20.846 37.7831C24.302 35.7392 30.35 33.5988 34.274 33.0397L34.868 32.9625C36.596 32.7311 38 30.9958 38 29.1447Z" stroke="black" stroke-width="3" stroke-linecap="round" stroke-linejoin="round"/>
</svg>
