<svg width="40" height="40" viewBox="0 0 40 40" fill="none" xmlns="http://www.w3.org/2000/svg">
<path d="M38 38L32.4933 32.5452M29.6037 5.84726L29.4765 12.6703C29.4583 13.6064 30.058 14.8486 30.8213 15.4067L35.3284 18.7912C38.2181 20.9515 37.7456 23.5979 34.2925 24.678L28.4224 26.4963C27.441 26.8023 26.4051 27.8645 26.1507 28.8547L24.7513 34.1474C23.6427 38.324 20.8803 38.7381 18.5904 35.0656L15.3918 29.9348C14.8102 28.9987 13.429 28.2966 12.3386 28.3506L6.2685 28.6566C1.92496 28.8727 0.689137 26.3883 3.52425 23.1118L7.12267 18.9712C7.7951 18.1971 8.10406 16.7569 7.7951 15.7847L5.95955 9.96987C4.88729 6.54936 6.81372 4.65908 10.2486 5.77525L15.6098 7.52151C16.5185 7.80955 17.8816 7.61152 18.6449 7.05344L24.2424 3.05685C27.2593 0.896528 29.6764 2.15671 29.6037 5.84726Z" stroke="black" stroke-width="3" stroke-linecap="round" stroke-linejoin="round"/>
</svg>
